SplineFontDB: 3.0
FontName: KisStM
FullName: Sorts Mill Kis
FamilyName: Sorts Mill Kis
Weight: Regular
Copyright: Created by trashman with FontForge 2.0 (http://fontforge.sf.net)
UComments: "Cut 3200-dpi samples to 640 pixels high. Scale by a factor of 1.1.+AAoACgAA-Cut 6400-dpi samples to 1280 pixels high. Scale by a factor of 1.1." 
Version: 001.000
ItalicAngle: 0
UnderlinePosition: -100
UnderlineWidth: 49
Ascent: 700
Descent: 300
LayerCount: 3
Layer: 0 0 "Back"  1
Layer: 1 0 "Fore"  0
Layer: 2 0 "backup"  0
NeedsXUIDChange: 1
XUID: [1021 658 797806517 2478896]
FSType: 0
OS2Version: 0
OS2_WeightWidthSlopeOnly: 0
OS2_UseTypoMetrics: 1
CreationTime: 1263111985
ModificationTime: 1264846483
OS2TypoAscent: 0
OS2TypoAOffset: 1
OS2TypoDescent: 0
OS2TypoDOffset: 1
OS2TypoLinegap: 90
OS2WinAscent: 0
OS2WinAOffset: 1
OS2WinDescent: 0
OS2WinDOffset: 1
HheadAscent: 0
HheadAOffset: 1
HheadDescent: 0
HheadDOffset: 1
MarkAttachClasses: 1
DEI: 91125
LangName: 1033 
Encoding: UnicodeBmp
UnicodeInterp: none
NameList: Adobe Glyph List
DisplaySize: -72
AntiAlias: 1
FitToEm: 1
WinInfo: 96 8 6
BeginPrivate: 9
BlueValues 23 [-16 1 392 415 657 682]
OtherBlues 11 [-293 -278]
BlueFuzz 1 0
BlueShift 1 3
BlueScale 8 0.039625
StdHW 4 [21]
StdVW 4 [73]
StemSnapH 7 [21 31]
StemSnapV 8 [73 100]
EndPrivate
BeginChars: 65536 66

StartChar: a
Encoding: 97 97 0
Width: 390
VWidth: 0
Flags: W
HStem: -12 37<97 195.804> -8 52<274 349.865> 367 40<140.73 222.914>
VStem: 32 72<253.328 331.895> 37 77<31.3347 117.412> 241 73<48.8757 182.999 200.654 350.73>
LayerCount: 3
Fore
SplineSet
379 58 m 0x74
 379 33 337 -8 294 -8 c 0x74
 254 -8 246 25 240 37 c 1
 186 -10 144 -12 124 -12 c 0
 70 -12 37 34 37 65 c 0
 37 113 75 145 180 186 c 0
 240 209 241 205 241 224 c 2
 241 314 l 2
 241 320 228 367 173 367 c 2
 169 367 l 2
 154 367 142 366 114 349 c 0xac
 109 346 104 335 104 320 c 0
 104 310 107 303 107 290 c 0
 107 264 86 250 67 250 c 0
 48 250 32 269 32 292 c 0
 32 350 169 407 215 407 c 0
 272 407 314 372 314 320 c 2
 314 79 l 2
 314 54 325 44 334 44 c 0
 351 44 362 66 370 66 c 0
 374 66 379 61 379 58 c 0x74
238 183 m 0
 235 183 191 164 147 139 c 0
 146 138 114 125 114 86 c 0
 114 60 124 25 155 25 c 0xac
 191 25 241 62 241 66 c 2
 241 175 l 2
 241 181 241 183 238 183 c 0
EndSplineSet
Validated: 1
EndChar

StartChar: M
Encoding: 77 77 1
Width: 912
VWidth: 0
Flags: W
HStem: -5 31<37.0119 93.3305 140.013 197.972 610.115 694.159 803.719 872.988> 625 33<94.1084 176.157 777.939 853.945>
VStem: 37 100<3.5 80.5> 698 96<28.5438 270.444>
LayerCount: 3
Fore
SplineSet
141 625 m 2
 109 625 l 2
 100 625 94 626 94 637 c 0
 94 655 98 658 107 658 c 0
 149 656 129 655 244 655 c 2
 257 655 l 2
 269 655 274 653 279 639 c 2
 459 134 l 1
 689 646 l 2
 692 653 698 655 706 655 c 2
 772 655 l 2
 804 655 835 657 845 657 c 0
 852 657 854 652 854 638 c 0
 854 624 852 627 813 624 c 0
 781 622 775 615 775 586 c 0
 775 573 775 555 776 532 c 2
 794 104 l 2
 797.359028864 39.5066458076 805 29 825 26 c 0
 835 24 847.60570596 24.6101364988 865 21 c 0
 871 20 873 17 873 10 c 0
 873 -2 869 -5 861 -5 c 0
 844 -5 794 1 747 1 c 0
 720 1 638 -5 625 -5 c 0
 609 -5 610 3 610 8 c 0
 610 26 619 22 677 26 c 0
 697 27 698 51 698 96 c 0
 698 133 686 554 683 554 c 0
 680 554 575 322 435 14 c 0
 431 6 430 3 421 3 c 2
 417 3 l 2
 410 3 406 3 402 16 c 0
 399 25 394 37 389 52 c 0
 381 75 208 568 204 568 c 0
 200 568 137 96 137 65 c 0
 137 29 148 26 174 26 c 0
 196 26 198 18 198 13 c 0
 198 -1 196 -5 182 -5 c 0
 176 -5 134 1 112 1 c 0
 100 1 57 -5 54 -5 c 0
 41 -5 37 -3 37 10 c 0
 37 27 47 23 63 26 c 0
 88 30 97 35 103 75 c 0
 176 587 177 592 177 599 c 0
 177 621 168 625 141 625 c 2
EndSplineSet
Validated: 1
Layer: 2
SplineSet
141 625 m 6
 109 625 l 6
 100 625 94 626 94 637 c 4
 94 655 98 658 107 658 c 4
 149 656 129 655 244 655 c 6
 257 655 l 6
 269 655 274 653 279 639 c 6
 459 134 l 5
 689 646 l 6
 692 653 698 655 706 655 c 6
 772 655 l 6
 804 655 835 657 845 657 c 4
 852 657 854 652 854 638 c 4
 854 624 852 627 813 624 c 4
 781 622 775 615 775 586 c 4
 775 573 775 555 776 532 c 6
 794 104 l 6
 798 11 810 30 865 21 c 4
 871 20 873 17 873 10 c 4
 873 -2 869 -5 861 -5 c 4
 844 -5 794 1 747 1 c 4
 720 1 638 -5 625 -5 c 4
 609 -5 610 3 610 8 c 4
 610 26 619 22 677 26 c 4
 697 27 698 51 698 96 c 4
 698 133 686 554 683 554 c 4
 680 554 575 322 435 14 c 4
 431 6 430 3 421 3 c 6
 417 3 l 6
 410 3 406 3 402 16 c 4
 399 25 394 37 389 52 c 4
 381 75 208 568 204 568 c 4
 200 568 137 96 137 65 c 4
 137 29 148 26 174 26 c 4
 196 26 198 18 198 13 c 4
 198 -1 196 -5 182 -5 c 4
 176 -5 134 1 112 1 c 4
 96 1 62 -3 59 -3 c 4
 42 -3 39 -1 39 12 c 4
 39 23 43 26 59 29 c 4
 78 32 97 35 103 75 c 4
 176 587 177 592 177 599 c 4
 177 621 168 625 141 625 c 6
EndSplineSet
EndChar

StartChar: b
Encoding: 98 98 2
Width: 463
VWidth: 0
Flags: W
HStem: -14 29<194.919 284.517> 1 21G<69.5 77> 379 30<186.587 287.817> 602 25<5.00437 57.9761> 640 20G<136 139>
VStem: 70 73<65.4478 347.979 382 595.274> 346 88<95.2048 304.335>
LayerCount: 3
Fore
SplineSet
148 382 m 0x7e
 151 382 194 409 243 409 c 0
 365 409 434 315 434 202 c 0
 434 73 355 -14 243 -14 c 0xbe
 169 -14 123 20 120 20 c 0
 114 20 81 1 73 1 c 0
 66 1 65 6 65 14 c 0
 67 52 70 121 70 139 c 2
 70 522 l 2
 70 596 65 593 17 602 c 0
 11 603 5 602 5 614 c 0
 5 627 8 626 15 627 c 0
 79 635 134 660 138 660 c 0
 140 660 146 657 146 653 c 0
 144 632 143 561 143 518 c 2
 143 402 l 2
 143 382 145 382 148 382 c 0x7e
190 367 m 0
 151 344 143 326 143 277 c 2
 143 192 l 2
 143 107 158 15 243 15 c 0
 318 15 346 118 346 207 c 0
 346 265 331 330 294 361 c 0
 278 374 258 379 239 379 c 0
 220 379 202 374 190 367 c 0
EndSplineSet
Validated: 1
EndChar

StartChar: c
Encoding: 99 99 3
Width: 399
VWidth: 0
Flags: W
HStem: -12 52<180.032 307.469> 378 24<186.788 259.994>
VStem: 18 80<123.374 288.531>
LayerCount: 3
Fore
SplineSet
380 75 m 0
 380 62 318 -12 217 -12 c 0
 132 -12 18 34 18 198 c 0
 18 307 102 402 237 402 c 0
 296 402 374 373 374 324 c 0
 374 302 358 284 338 284 c 0
 303 284 286 327 273 349 c 0
 259 372 250 378 227 378 c 0
 168 378 98 305 98 211 c 0
 98 94 190 40 256 40 c 0
 311 40 343 63 359 76 c 0
 365 81 370 83 373 83 c 0
 377 83 380 79 380 75 c 0
EndSplineSet
Validated: 1
EndChar

StartChar: d
Encoding: 100 100 4
Width: 465
VWidth: 0
Flags: W
HStem: -15 41<170.026 270.636> 371 27<166.184 267.284> 602 25<245.004 297.976> 640 20G<376 379>
VStem: 21 75<113.324 277.779> 310 73<46.315 339.775 392 595.274>
LayerCount: 3
Fore
SplineSet
378 660 m 0
 380 660 386 657 386 653 c 0
 384 632 383 561 383 518 c 2
 383 172 l 2
 383 66 386 49 414 42 c 0
 418 41 434 38 436 38 c 0
 444 37 444 34 444 26 c 0
 444 17 441 15 438 15 c 0
 352 1 337 -11 327 -11 c 0
 325 -11 319 -8 319 -7 c 0
 319 5 320 25 320 34 c 0
 320 37 320 40 319 40 c 0
 318 40 313 36 309 31 c 0
 297 19 250 -15 191 -15 c 0
 100 -15 21 63 21 181 c 0
 21 258 67 398 248 398 c 0
 262 398 296 394 310 392 c 1
 310 522 l 2
 310 596 305 593 257 602 c 0
 251 603 245 602 245 614 c 0
 245 627 248 626 255 627 c 0
 319 635 374 660 378 660 c 0
217 371 m 0
 131 371 96 295 96 215 c 0
 96 126 145 26 230 26 c 0
 305 26 310 88 310 96 c 2
 310 282 l 2
 310 330 273 371 217 371 c 0
EndSplineSet
Validated: 1
EndChar

StartChar: e
Encoding: 101 101 5
Width: 425
VWidth: 0
Flags: W
HStem: -13 55<187.684 316.549> 252 22<118.346 310.465> 379 25<176.54 269.486>
VStem: 35 71<129.797 272.648> 315 75<274 333.445>
LayerCount: 3
Fore
SplineSet
315 299 m 0
 315 325 286 379 221 379 c 0
 154 379 118 308 118 287 c 0
 118 278 117 274 131 274 c 2
 295 274 l 2
 299 274 315 282 315 299 c 0
35 201 m 0
 35 303 106 404 223 404 c 0
 330 404 386 336 390 271 c 0
 391 259 390 253 372 253 c 2
 124 252 l 2
 107 252 106 242 106 226 c 0
 106 156 140 42 276 42 c 0
 308 42 350 48 372 97 c 0
 377 108 380 110 388 107 c 0
 393 105 395 101 395 100 c 0
 394 84 377 49 343 25 c 0
 315 5 276 -13 228 -13 c 0
 73 -13 35 133 35 201 c 0
EndSplineSet
Validated: 1
EndChar

StartChar: f
Encoding: 102 102 6
Width: 293
VWidth: 0
Flags: HW
HStem: 0 23<27 88.1404 172.375 245> 353 40<169 277> 637 46<216.059 320.5>
VStem: 95 73<23.6853 349>
LayerCount: 3
Back
SplineSet
168 345 m 6
 168 100 l 6
 168 51 170 27 194 24 c 4
 233 20 235 19 235 10 c 6
 235 6 l 6
 235 -1 231 -2 224 -2 c 4
 207 -2 150 0 123 0 c 4
 92 0 43 -2 30 -2 c 4
 26 -2 22 -1 22 9 c 4
 22 21 31 21 39 21 c 6
 49 21 l 6
 76 21 95 24 95 93 c 6
 95 327 l 6
 95 347 94 349 84 349 c 6
 72 349 l 6
 50 349 35 352 35 359 c 4
 35 376 80 379 87 401 c 4
 108 467 110 570 180 635 c 4
 210 662 245 683 305 683 c 4
 336 683 395 673 395 630 c 4
 395 608 376 586 355 586 c 4
 306 586 286 637 249 637 c 4
 176 637 168 535 168 410 c 4
 168 395 168 393 199 393 c 6
 244 393 l 6
 272 393 277 392 277 381 c 4
 277 355 275 352 249 352 c 4
 234 352 214 353 177 353 c 4
 171 353 168 350 168 345 c 6
EndSplineSet
Fore
SplineSet
168 353 m 1
 168 68 l 2
 168 37 171 21 194 21 c 2
 245 21 l 1
 245 0 l 1
 27 0 l 1
 27 21 l 1
 59 21 l 2
 86 21 95 24 95 93 c 2
 95 349 l 1
 66 349 l 2
 44 349 35 350 35 359 c 0
 35 376 80 379 87 401 c 0
 108 467 110 570 180 635 c 0
 210 662 245 683 305 683 c 0
 336 683 395 673 395 630 c 0
 395 608 376 586 355 586 c 0
 306 586 286 637 249 637 c 0
 176 637 169 535 169 410 c 2
 169 393 l 1
 277 393 l 1
 277 353 l 1
 168 353 l 1
EndSplineSet
EndChar

StartChar: g
Encoding: 103 103 7
Width: 442
VWidth: 0
Flags: HW
HStem: -289 59<108.67 256.89> -70 70<94.6595 327.616> 92 22<159.097 235.397> 336 66<359.141 431.168> 375 26<156.829 239.229>
VStem: 13 57<-227.5 -129.738> 31 59<-32 56.6561> 34 70<158.693 317.067> 289 71<163.9 322.685> 347 49<-176.722 -89.7846>
LayerCount: 3
Fore
SplineSet
100 110 m 0xf2
 100 119 34 145 34 239 c 0
 34 330 112 401 202 401 c 0xe9
 269 401 302 367 304 367 c 0
 307 367 345 402 388 402 c 0
 421 402 435 383 435 365 c 0
 435 350 425 336 407 336 c 0
 376 336 363 363 344 363 c 0
 335 363 324 353 324 350 c 0
 324 339 360 309 360 244 c 0
 360 157 299 92 199 92 c 0
 169 92 153 97 123 102 c 0
 119 103 117 100 110 94 c 0
 101 85 90 69 90 41 c 0xf280
 90 3 115 0 176 0 c 2
 234 0 l 2
 309 0 345 -5 376 -43 c 0
 389 -58 396 -86 396 -101 c 0
 396 -221 255 -289 145 -289 c 0
 73 -289 13 -259 13 -196 c 0xf440
 13 -151 48 -106 71 -83 c 0
 83 -70 91 -68 91 -67 c 0
 91 -64 31 -56 31 -8 c 0
 31 39 64 75 86 94 c 0
 95 102 100 106 100 110 c 0xf2
118 -69 m 0
 114 -69 70 -108 70 -149 c 0
 70 -202 136 -230 195 -230 c 0
 269 -230 347 -198 347 -136 c 0xe440
 347 -76 287 -70 219 -70 c 2
 154 -70 l 2
 142 -70 129 -70 118 -69 c 0
199 114 m 0
 249 114 287 166 287 246 c 0
 287 332 244 375 199 375 c 0
 139 375 106 313 106 250 c 0xe980
 106 210 111 182 123 161 c 0
 141 130 170 114 199 114 c 0
EndSplineSet
EndChar

StartChar: h
Encoding: 104 104 8
Width: 454
VWidth: 0
Flags: HW
HStem: -2 20<10.0015 57.207 146.492 196.996 271.002 309.992 402.357 443.993> 355 44<180.523 284.838> 602 25<-0.995628 51.9761> 640 20G<130 133>
VStem: 64 73<29.3823 340.724 365.353 595.274> 315 73<23.5615 324.252>
LayerCount: 3
Back
SplineSet
220 355 m 4
 186 355 163 344 150 336 c 4
 138 329 137 327 137 321 c 6
 137 97 l 6
 137 24 141 21 181 18 c 4
 183 18 187 17 189 17 c 4
 200 15 197 10 197 5 c 4
 197 0 192 -2 185 -2 c 4
 173 -2 128 0 100 0 c 4
 75 0 25 -2 22 -2 c 4
 10 -2 10 0 10 9 c 4
 10 15 12 16 24 18 c 4
 34 19 53 21 58 29 c 4
 63 37 64 55 64 86 c 6
 64 522 l 6
 64 596 59 593 11 602 c 4
 5 603 -1 602 -1 614 c 4
 -1 627 2 626 9 627 c 4
 73 635 128 660 132 660 c 4
 134 660 140 657 140 653 c 4
 138 632 137 561 137 518 c 6
 137 367 l 6
 137 348 142 356 149 360 c 4
 178 379 222 399 281 399 c 4
 322 399 362 376 374 334 c 4
 380 313 388 297 388 215 c 6
 388 92 l 6
 388 19 402 25 436 18 c 4
 445 16 444 16 444 8 c 4
 444 0 443 -1 423 -1 c 4
 407 -1 376 0 361 0 c 4
 344 0 288 -2 283 -2 c 4
 273 -2 271 0 271 8 c 4
 271 19 274 14 301 22 c 4
 312 25 315 26 315 93 c 6
 315 209 l 6
 315 244 313 295 297 320 c 4
 281 344 243 355 220 355 c 4
EndSplineSet
Fore
SplineSet
220 355 m 0
 186 355 163 344 150 336 c 0
 138 329 137 327 137 321 c 2
 137 97 l 2
 137 24 135 21 177 21 c 2
 197 21 l 1
 197 0 l 1
 10 0 l 1
 10 21 l 1
 29 21 l 2
 64 21 64 24 64 86 c 2
 64 522 l 2
 64 596 59 593 11 602 c 0
 5 603 -1 602 -1 614 c 0
 -1 627 2 626 9 627 c 0
 73 635 128 660 132 660 c 0
 134 660 140 657 140 653 c 0
 138 632 137 561 137 518 c 2
 137 367 l 2
 137 348 142 356 149 360 c 0
 178 379 222 399 281 399 c 0
 322 399 362 376 374 334 c 0
 380 313 388 297 388 215 c 2
 388 92 l 2
 388 21 388 21 419 21 c 2
 444 21 l 1
 444 0 l 1
 261 0 l 1
 261 21 l 1
 294 21 l 2
 311 21 315 26 315 93 c 2
 315 209 l 2
 315 244 313 295 297 320 c 0
 281 344 243 355 220 355 c 0
EndSplineSet
EndChar

StartChar: i
Encoding: 105 105 9
Width: 244
VWidth: 0
Flags: HW
HStem: -1 20.3319<21.0657 67.2453 174.963 215.998> 391 20G<154.5 158.5> 569 91<88.2207 167.134>
VStem: 80 94<577.185 652.67> 90 73<29.9029 339.188>
LayerCount: 3
Back
SplineSet
90 306 m 2xe8
 90 332 86 332 44 350 c 0
 40 352 40 353 40 358 c 0
 40 367 42 368 43 368 c 0
 117 389 152 411 157 411 c 0
 160 411 164 407 164 404 c 0
 164 393 163 331 163 316 c 2
 163 81 l 2
 163 57 165 35 180 25 c 0
 185.867241088 21.0885059411 194.562100325 20.2325258711 201.999999712 19.3319188008 c 0
 213 18 216 16.154885397 216 9 c 0
 216 3 214 -1 207 -1 c 0
 192 -1 162 1 121 1 c 0
 81 1 41 -3 31 -3 c 0
 24 -3 21 0 21 11 c 0
 21 21 31 19 49 22 c 0
 82 27 90 56 90 131 c 2
 90 306 l 2xe8
125 660 m 0
 158 660 174 636 174 614 c 0
 174 592 159 569 129 569 c 0
 99 569 80 593 80 617 c 0
 80 636 93 660 125 660 c 0
EndSplineSet
Fore
SplineSet
90 306 m 2
 90 332 86 332 44 350 c 0
 40 352 40 353 40 358 c 0
 40 367 42 368 43 368 c 0
 117 389 152 411 157 411 c 0
 160 411 164 407 164 404 c 0
 164 393 163 331 163 316 c 2
 163 81 l 2
 163 21 176 21 190 21 c 2
 216 21 l 1
 216 0 l 1
 25 0 l 1
 25 21 l 1
 58 21 l 2
 89 21 90 53 90 119 c 2
 90 306 l 2
125 660 m 0
 158 660 174 636 174 614 c 0
 174 592 159 569 129 569 c 0
 99 569 80 593 80 617 c 0xf0
 80 636 93 660 125 660 c 0
EndSplineSet
EndChar

StartChar: j
Encoding: 106 106 10
Width: 258
VWidth: 0
Flags: W
HStem: -284 21G<37 44.5> 395 20G<174 177> 569 91<73.2207 152.134>
VStem: 65 94<577.185 652.67> 110 73<-135.33 334.227>
LayerCount: 3
Fore
SplineSet
110 660 m 0xe8
 143 660 159 636 159 614 c 0
 159 592 144 569 114 569 c 0
 84 569 65 593 65 617 c 0xf0
 65 636 78 660 110 660 c 0xe8
110 88 m 2xe8
 110 260 l 2
 110 341 98 333 50 343 c 0
 45 344 43 347 43 351 c 2
 43 354 l 2
 43 358 43 362 47 363 c 0
 123 386 173 415 175 415 c 0
 179 415 185 411 185 406 c 0
 184 370 183 339 183 306 c 2
 183 -20 l 2
 183 -140 122 -214 98 -237 c 0
 82 -253 47 -284 42 -284 c 0
 32 -284 23 -273 23 -264 c 0
 23 -258 45 -248 68 -218 c 0
 107 -168 110 -113 110 88 c 2xe8
EndSplineSet
Validated: 1
EndChar

StartChar: k
Encoding: 107 107 11
Width: 461
VWidth: 0
Flags: HW
HStem: -2 19<15.0031 64.6402 156.034 201 258.279 292.897 403.788 437.686> 169 21<147 197.88> 372 20<251.002 293.379> 602 25<9.00437 61.9761> 640 20G<140 143>
VStem: 74 73<21.8987 169 190 595.274> 300 133<338.5 388.5>
DStem2: 231 236 271 245 0.620054 0.784559<2.60767 127.104>
LayerCount: 3
Back
SplineSet
147 169 m 5
 147 97 l 6
 147 27 150 18 184 17 c 4
 205 16 201 12 201 6 c 4
 201 1 201 -2 190 -2 c 4
 178 -2 138 0 110 0 c 4
 85 0 28 -2 25 -2 c 4
 16 -2 15 2 15 8 c 4
 15 13 15 15 21 17 c 4
 28 19 38 19 49 21 c 4
 70 24 74 19 74 139 c 6
 74 522 l 6
 74 596 69 593 21 602 c 4
 15 603 9 602 9 614 c 4
 9 627 12 626 19 627 c 4
 83 635 138 660 142 660 c 4
 144 660 150 657 150 653 c 4
 148 632 147 561 147 518 c 6
 147 190 l 5
 163 190 l 6
 185 190 196 191 231 236 c 6
 280 298 l 6
 293 315 300 333 300 344 c 4
 300 371 276 369 260 372 c 4
 254 373 251 375 251 382 c 4
 251 386 251 392 260 392 c 6
 421 392 l 6
 430 392 433 392 433 385 c 4
 433 361 403 394 335 322 c 4
 309 295 285 265 271 245 c 4
 260 230 254 224 254 221 c 4
 254 218 257 213 267 200 c 4
 410 13 390 22 440 19 c 4
 452 18 453 12 453 8 c 6
 453 4 l 6
 453 0 452 -3 438 -3 c 4
 432 -3 381 0 358 0 c 4
 349 0 300 -2 266 -2 c 4
 261 -2 258 0 258 5 c 4
 258 13 264 16 275 16 c 4
 284 16 293 18 293 28 c 4
 293 40 278 62 199 163 c 4
 195 167 190 169 177 169 c 6
 147 169 l 5
EndSplineSet
Fore
SplineSet
74 521 m 2
 74 583 71 591 43 597 c 0
 35 599 19 599 15 600 c 1
 13 604 13 608 13 611 c 0
 13 614 13 618 15 621 c 1
 94 637 142 660 142 660 c 1
 142 660 150 658 150 653 c 0
 148 631 147 616 147 588 c 2
 147 191 l 1
 163 191 l 2
 194 191 196 191 231 236 c 2
 280 298 l 2
 293 315 300 333 300 344 c 0
 300 371 276 371 260 371 c 2
 251 371 l 1
 251 392 l 1
 433 392 l 1
 433 371 l 1
 419 371 l 2
 402 371 376 366 335 322 c 0
 309 295 285 265 271 245 c 0
 260 230 254 224 254 221 c 0
 254 218 257 213 267 200 c 0
 399 28 392 21 429 21 c 2
 444 21 l 1
 444 0 l 1
 258 0 l 1
 258 21 l 1
 275 21 l 2
 284 21 293 21 293 28 c 0
 293 40 278 62 199 163 c 0
 195 167 190 168 177 168 c 2
 147 168 l 1
 147 97 l 2
 147 27 147 21 181 21 c 2
 203 21 l 1
 203 0 l 1
 17 0 l 1
 17 21 l 1
 45 21 l 2
 68 21 74 21 74 116 c 2
 74 521 l 2
EndSplineSet
EndChar

StartChar: l
Encoding: 108 108 12
Width: 239
VWidth: 0
Flags: HWO
HStem: -2 22<21.0008 72.6481 166.823 217.939> 602 25<20.0044 72.9761> 640 20G<151 154>
VStem: 85 73<25.9475 595.274>
LayerCount: 3
Back
SplineSet
158 588 m 6
 158 97 l 6
 158 24 162 26 202 20 c 4
 218 18 218 15 218 5 c 4
 218 0 213 -2 206 -2 c 4
 194 -2 149 0 121 0 c 4
 96 0 36 -2 33 -2 c 4
 22 -2 21 1 21 9 c 4
 21 21.8248550231 22.1975528163 18.2358893798 52 23 c 4
 83.1620429754 27.9814506497 85 40 85 99 c 6
 85 521 l 6
 85 583 82 591 54 597 c 4
 46 599 30 599 26 600 c 5
 24 604 24 608 24 611 c 4
 24 614 24 618 26 621 c 5
 105 637 153 660 153 660 c 5
 153 660 161 658 161 653 c 4
 159 631 158 616 158 588 c 6
EndSplineSet
Fore
SplineSet
158 588 m 2
 158 97 l 2
 158 24 162 21 202 21 c 2
 218 21 l 1
 218 0 l 1
 26 0 l 1
 26 21 l 1
 56 21 l 6
 83 21 85 35 85 94 c 2
 85 521 l 2
 85 583 82 591 54 597 c 0
 46 599 30 599 26 600 c 1
 24 604 24 608 24 611 c 0
 24 614 24 618 26 621 c 1
 105 637 153 660 153 660 c 1
 153 660 161 658 161 653 c 0
 159 631 158 616 158 588 c 2
EndSplineSet
EndChar

StartChar: m
Encoding: 109 109 13
Width: 716
VWidth: 0
Flags: HW
HStem: -2 21<16.0117 55.8242 152.637 199.996 265.009 311.917 404.999 453.996 530.857 569.389> 359 42<196.658 297.277 441.276 553.346>
VStem: 67 73<25.0726 334.711> 323 73<24.283 333.424> 579 73<23.1875 332.009>
CounterMasks: 1 38
LayerCount: 3
Back
SplineSet
652 66 m 2
 652 7 700 22.8523049528 700 12 c 0
 700 0 700 -2 684 -2 c 0
 680 -2 638 0 620 0 c 0
 584 0 548 -2 530 -2 c 0
 523 -2 519 -1 520 9 c 0
 521 20 526 18 532 19 c 0
 576 24 579 26 579 89 c 2
 579 206 l 2
 579 287 576 363 493 363 c 0
 459 363 417 343 402 319 c 0
 400 316 394 310 394 302 c 0
 394 280 396 244 396 230 c 2
 396 104 l 2
 396 25 399 26 430 22 c 0
 453 19 454 15 454 8 c 0
 454 -1 450 -2 444 -2 c 0
 430 -2 436 0 363 0 c 0
 326 0 287 -2 277 -2 c 0
 276 -2 275 -2 274 -2 c 0
 268 -2 265 -1 265 9 c 0
 265 20 269 18 275 19 c 0
 310 25 314 26 320 43 c 0
 322 48 323 56 323 67 c 2
 323 214 l 2
 323 291 319 359 244 359 c 0
 211 359 164 342 148 324 c 0
 140 315 140 304 140 285 c 2
 140 76 l 2
 140 38 143 26 180 21 c 0
 202 18 200 15 200 7 c 0
 200 -2 194 -2 188 -2 c 0
 176 -2 122 0 107 0 c 0
 77 0 37 -1 29 -1 c 0
 20 -1 16 0 16 9 c 0
 16 20 25 19 42 23 c 0
 52 25 67 28 67 72 c 2
 67 288 l 2
 67 321 65 335 36 342 c 0
 17 347 16 345 16 357 c 0
 16 363 16 365 21 366 c 0
 81 380 129 407 133 407 c 0
 138 407 141 402 141 398 c 0
 141 388 140 360 140 358 c 0
 140 348 143 352 152 357 c 0
 176 372 231 401 290 401 c 0
 370 401 378 349 386 349 c 0
 397 349 445 401 530 401 c 0
 593 401 652 374.078401241 652 272 c 2
 652 66 l 2
EndSplineSet
Fore
SplineSet
652 66 m 2
 652 7 700 23 700 12 c 0
 700 0 700 -2 684 -2 c 0
 680 -2 638 0 620 0 c 0
 584 0 548 -2 530 -2 c 0
 523 -2 519 -1 520 9 c 0
 521 20 526 18 532 19 c 0
 576 24 579 26 579 89 c 2
 579 206 l 2
 579 287 576 363 493 363 c 0
 459 363 417 343 402 319 c 0
 400 316 394 310 394 302 c 0
 394 280 396 239 396 225 c 2
 396 104 l 2
 396 25 399 26 430 22 c 0
 453 19 454 15 454 8 c 0
 454 -1 450 -2 444 -2 c 0
 430 -2 436 0 363 0 c 0
 326 0 287 -2 277 -2 c 0
 276 -2 275 -2 274 -2 c 0
 268 -2 265 -1 265 9 c 0
 265 20 269 18 275 19 c 0
 310 25 314 26 320 43 c 0
 322 48 323 56 323 67 c 2
 323 214 l 2
 323 291 319 359 244 359 c 0
 211 359 164 342 148 324 c 0
 140 315 140 304 140 285 c 2
 140 76 l 2
 140 38 143 26 180 21 c 0
 202 18 200 15 200 7 c 0
 200 -2 194 -2 188 -2 c 0
 176 -2 122 0 107 0 c 0
 77 0 37 -1 29 -1 c 0
 20 -1 16 0 16 9 c 0
 16 20 25 19 42 23 c 0
 52 25 67 28 67 72 c 2
 67 288 l 2
 67 321 65 335 36 342 c 0
 17 347 16 345 16 357 c 0
 16 363 16 365 21 366 c 0
 81 380 129 407 133 407 c 0
 138 407 141 402 141 398 c 0
 141 388 138 359 138 357 c 0
 137 347 141 351 150 356 c 0
 174 371 231 401 290 401 c 0
 370 401 378 349 386 349 c 0
 397 349 445 401 530 401 c 0
 593 401 652 374 652 272 c 2
 652 66 l 2
EndSplineSet
Layer: 2
SplineSet
386 349 m 4
 397 349 445 401 530 401 c 4
 593 401 642 374 646 272 c 4
 652 149 651 77 652 66 c 4
 654 30 668 22 682 19 c 4
 692 17 700 16 700 12 c 4
 700 0 700 -2 684 -2 c 4
 680 -2 638 0 620 0 c 4
 584 0 548 -2 530 -2 c 4
 523 -2 519 -1 520 9 c 4
 521 20 526 18 532 19 c 4
 576 24 579 26 579 89 c 6
 579 206 l 6
 579 287 576 363 493 363 c 4
 459 363 417 343 402 319 c 4
 400 316 394 310 394 302 c 4
 394 280 396 244 396 230 c 6
 396 104 l 6
 396 25 399 26 430 22 c 4
 453 19 454 15 454 8 c 4
 454 -1 450 -2 444 -2 c 4
 430 -2 436 0 363 0 c 4
 326 0 287 -2 277 -2 c 4
 276 -2 275 -2 274 -2 c 4
 268 -2 265 -1 265 9 c 4
 265 20 269 18 275 19 c 4
 310 25 314 26 320 43 c 4
 322 48 323 56 323 67 c 6
 323 214 l 6
 323 291 319 359 244 359 c 4
 211 359 164 342 148 324 c 4
 140 315 140 304 140 285 c 6
 140 76 l 6
 140 38 143 26 180 21 c 4
 202 18 200 15 200 7 c 4
 200 -2 194 -2 188 -2 c 4
 176 -2 122 0 107 0 c 4
 77 0 37 -1 29 -1 c 4
 20 -1 16 0 16 9 c 4
 16 20 25 19 42 23 c 4
 52 25 67 28 67 72 c 6
 67 288 l 6
 67 321 65 330 36 337 c 4
 17 342 16 340 16 352 c 4
 16 358 16 360 21 361 c 4
 81 375 129 402 133 402 c 4
 138 402 141 397 141 393 c 4
 141 383 140 360 140 358 c 4
 140 348 143 352 152 357 c 4
 176 372 231 401 290 401 c 4
 370 401 378 349 386 349 c 4
EndSplineSet
EndChar

StartChar: n
Encoding: 110 110 14
Width: 460
VWidth: 0
Flags: HW
HStem: -2 23<18.0291 60.9142 146.542 199.996 265.057 316 418 424.719> 353 48<208.924 294.599>
VStem: 67 73<23.4694 324.409> 323 73<23.1875 322.994>
LayerCount: 3
Back
SplineSet
323 89 m 2
 323 184 l 2
 323 273 322 353 239 353 c 0
 206 353 163 334 148 309 c 0
 142 299 140 289 140 270 c 2
 140 104 l 2
 140 26 140 25 180 21 c 0
 202 19 200 15 200 7 c 0
 200 -2 194 -2 188 -2 c 0
 176 -2 122 0 107 0 c 0
 77 0 39 -1 31 -1 c 0
 22 -1 18 0 18 9 c 0
 18 16 28 17 42 21 c 0
 52 24 67 20 67 72 c 2
 67 288 l 2
 67 321 65 335 36 342 c 0
 17 347 16 345 16 357 c 0
 16 363 16 365 21 366 c 0
 81 380 129 407 133 407 c 0
 138 407 141 402 141 398 c 0
 141 387 141 372 140 348 c 0
 140 333 140 335 151 343 c 0
 174 361 230 401 290 401 c 0
 340 401 371 375 380 344 c 0
 386 325 396 311 396 222 c 2
 396 66 l 2
 396 50 398 28 418 22 c 2
 428 19 l 2
 439 16 444 15 444 11 c 2
 444 7 l 2
 444 -1 442 -2 423 -2 c 0
 419 -2 382 0 364 0 c 0
 327 0 288 -3 278 -3 c 0
 269 -3 264 -3 265 9 c 0
 266 20 270 18 276 19 c 0
 320 24 323 26 323 89 c 2
EndSplineSet
Fore
SplineSet
323 89 m 2
 323 184 l 2
 323 273 322 353 239 353 c 0
 206 353 163 334 148 309 c 0
 142 299 140 289 140 270 c 2
 140 104 l 2
 140 26 140 25 180 21 c 0
 202 19 200 15 200 7 c 0
 200 -2 194 -2 188 -2 c 0
 176 -2 122 0 107 0 c 0
 77 0 39 -1 31 -1 c 0
 22 -1 18 0 18 9 c 0
 18 16 28 17 42 21 c 0
 52 24 67 20 67 72 c 2
 67 288 l 2
 67 321 65 335 36 342 c 0
 17 347 16 345 16 357 c 0
 16 363 16 365 21 366 c 0
 81 380 129 407 133 407 c 0
 138 407 141 402 141 398 c 0
 141 387 139 370 137 346 c 0
 136 331 137 333 148 341 c 0
 171 359 230 401 290 401 c 0
 375 401 396 340 396 222 c 2
 396 66 l 2
 396 50 398 28 418 22 c 2
 428 19 l 2
 439 16 444 15 444 11 c 2
 444 7 l 2
 444 -1 442 -2 423 -2 c 0
 419 -2 382 0 364 0 c 0
 327 0 288 -3 278 -3 c 0
 269 -3 264 -3 265 9 c 0
 266 20 270 18 276 19 c 0
 320 24 323 26 323 89 c 2
EndSplineSet
Layer: 2
SplineSet
323 89 m 6
 323 184 l 6
 323 273 322 353 239 353 c 4
 206 353 163 334 148 309 c 4
 142 299 140 289 140 270 c 6
 140 104 l 6
 140 26 140 25 180 21 c 4
 202 19 200 15 200 7 c 4
 200 -2 194 -2 188 -2 c 4
 176 -2 122 0 107 0 c 4
 77 0 39 -1 31 -1 c 4
 22 -1 18 0 18 9 c 4
 18 16 28 17 42 21 c 4
 52 24 67 20 67 72 c 6
 67 288 l 6
 67 321 65 330 36 337 c 4
 17 342 16 340 16 352 c 4
 16 358 16 360 21 361 c 4
 81 375 129 402 133 402 c 4
 138 402 141 397 141 393 c 4
 141 382 141 374 140 350 c 4
 140 338 141 335 151 343 c 4
 174 361 230 401 290 401 c 4
 340 401 371 375 380 344 c 4
 386 325 396 311 396 222 c 6
 396 66 l 6
 396 50 398 28 418 22 c 6
 428 19 l 6
 439 16 444 15 444 11 c 6
 444 7 l 6
 444 -1 442 -2 423 -2 c 4
 419 -2 382 0 364 0 c 4
 327 0 288 -3 278 -3 c 4
 269 -3 264 -3 265 9 c 4
 266 20 270 18 276 19 c 4
 320 24 323 26 323 89 c 6
EndSplineSet
EndChar

StartChar: o
Encoding: 111 111 15
Width: 450
VWidth: 0
Flags: W
HStem: -15 26<174.058 266.936> 375 31<180.756 274.114>
VStem: 21 83<99.4203 287.541> 350 79<99.1529 285.526>
LayerCount: 3
Fore
SplineSet
429 189 m 0
 429 73 330 -15 220 -15 c 0
 127 -15 21 61 21 195 c 0
 21 304 105 406 233 406 c 0
 357 406 429 293 429 189 c 0
227 375 m 0
 167 375 104 304 104 190 c 0
 104 93 141 11 222 11 c 0
 278 11 350 70 350 190 c 0
 350 309 286 375 227 375 c 0
EndSplineSet
Validated: 1
Layer: 2
SplineSet
220 -15 m 4
 127 -15 21 61 21 195 c 4
 21 304 105 406 233 406 c 4
 357 406 429 293 429 189 c 4
 429 142 413 100 382 63 c 4
 346 20 290 -15 220 -15 c 4
350 190 m 4
 350 309 286 372 227 375 c 4
 214 375 190.585015224 374.393972923 162 347 c 4
 118.585015224 305.393972923 104 245 104 190 c 4
 104 93 141 11 222 11 c 4
 278 11 350 70 350 190 c 4
EndSplineSet
EndChar

StartChar: p
Encoding: 112 112 16
Width: 469
VWidth: 0
Flags: W
HStem: -275 26<11.0544 67.375 153.238 219.96> -4 25<200.582 285.93> 365 41<197.47 298.854>
VStem: 76 73<-246.593 5.16795 59.6807 338.277> 359 83<107.499 298.747>
LayerCount: 3
Fore
SplineSet
189 -249 m 2
 199 -249 l 2
 214 -249 220 -251 220 -260 c 0
 220 -272 218 -275 207 -275 c 0
 189 -275 132 -273 114 -273 c 0
 93 -273 26 -275 19 -275 c 0
 13 -275 11 -270 11 -264 c 0
 11 -258 12 -249 19 -249 c 0
 51 -248 69 -253 73 -216 c 0
 75 -192 76 -149 76 -82 c 2
 76 305 l 2
 76 332 74 330 45 343 c 0
 26 352 22 349 22 358 c 0
 22 367 24 368 25 368 c 0
 108 392 133 411 138 411 c 0
 141 411 145 407 145 404 c 0
 145 393 146 367 146 352 c 0
 146 345 145 343 155 353 c 0
 164 362 204 406 277 406 c 0
 372 406 442 304 442 202 c 0
 442 151 423 97 389 59 c 0
 359 25 305 -4 249 -4 c 0
 206 -4 174 4 159 8 c 0
 148 11 149 8 149 2 c 2
 149 -187 l 2
 149 -248 153 -249 189 -249 c 2
242 21 m 0
 287 21 359 61 359 196 c 0
 359 308 302 365 236 365 c 0
 212 365 192 358 178 348 c 0
 153 330 149 316 149 303 c 2
 149 117 l 2
 149 73 192 21 242 21 c 0
EndSplineSet
Validated: 1
EndChar

StartChar: q
Encoding: 113 113 17
Width: 475
VWidth: 0
Flags: W
HStem: -274 26<239.986 310.307 400.406 456.944> -7 33<188.875 303.285> 382 30<164.585 266.127>
VStem: 23 87<112.716 300.096> 321 73<-245.239 17 34.0505 342.156>
LayerCount: 3
Fore
SplineSet
220 412 m 0
 294 412 354 383 358 383 c 0
 361 383 362 387 371 394 c 0
 386 407 387 408 390 408 c 0
 396 408 400 405 400 400 c 0
 400 351 394 390 394 -125 c 2
 394 -178 l 2
 394 -243 397 -248 446 -248 c 0
 457 -248 457 -251 457 -259 c 0
 457 -275 449 -274 441 -274 c 0
 420 -274 384 -273 359 -273 c 0
 336 -273 291 -276 246 -276 c 0
 242 -276 239 -273 239 -265 c 2
 239 -260 l 2
 239 -245 241 -249 296 -246 c 0
 314 -245 321 -219 321 -140 c 2
 321 17 l 1
 321 17 276 -7 210 -7 c 0
 60 -7 23 137 23 206 c 0
 23 329 121 412 220 412 c 0
257 26 m 0
 319 26 321 59 321 72 c 2
 321 289 l 2
 321 343 260 382 215 382 c 0
 150 381 110 329 110 243 c 0
 110 152 130 26 257 26 c 0
EndSplineSet
Validated: 1
EndChar

StartChar: r
Encoding: 114 114 18
Width: 332
VWidth: 0
Flags: W
HStem: -2 20<10.0277 66.6274 181.007 241.999> 349 58<214.25 287.5>
VStem: 86 73<28.2281 327>
LayerCount: 3
Fore
SplineSet
291 311 m 0
 245 311 251 349 222 349 c 0
 194 349 160 307 160 299 c 0
 159 225 159 265 159 128 c 0
 159 48 160 36 181 28 c 0
 205 18 227 19 237 18 c 0
 241.102539062 17.58984375 242 14 242 9 c 0
 242 4 243 -2 232 -2 c 0
 205 -2 158 1 116 1 c 0
 84 1 30 -2 23 -2 c 0
 12 -2 10 2 10 9 c 0
 10 20 14 21 35 21 c 0
 85 22 86 44 86 117 c 0
 86 180 86 243 86 306 c 0
 86 334 85 330 61 343 c 0
 41 353 40 349 40 358 c 0
 40 367 42 368 43 368 c 0
 123 391 148 411 153 411 c 0
 156 411 160 407 160 404 c 0
 160 393 159 367 159 352 c 0
 159 345 160 341 170 350 c 0
 190 369 234 407 274 407 c 0
 301 407 327 385 327 355 c 0
 327 334 313 311 291 311 c 0
EndSplineSet
Validated: 524289
EndChar

StartChar: s
Encoding: 115 115 19
Width: 338
VWidth: 0
Flags: W
HStem: -11 26<121.09 222.992> 381 24<130.238 208.686>
VStem: 43 27<95.5575 136.376> 55 59<272.731 363.442> 244 58<35.7693 126.822>
LayerCount: 3
Fore
SplineSet
190 -11 m 0xd8
 158 -11 127 -4 104 -4 c 0
 94 -4 66 -6 62 -6 c 0
 50 -6 50 1 50 9 c 0
 50 17 51 22 51 37 c 0
 51 76 43 112 43 127 c 0xe8
 43 134 46 137 55 138 c 0xd8
 61 139 67 138 70 128 c 0xe8
 97 53 130 15 184 15 c 0
 222 15 244 40 244 75 c 0
 244 125 201 146 150 176 c 0
 107 201 55 233 55 291 c 0
 55 359 96 405 173 405 c 0
 222 405 246 393 254 393 c 0
 256 393 275 400 280 400 c 0
 288 400 290 397 290 386 c 0
 290 377 289 351 289 340 c 0
 289 327 294 301 294 292 c 0
 294 283 289 279 283 279 c 0
 279 279 274 281 271 285 c 0
 259 301 238 381 166 381 c 0
 130 381 114 360 114 319 c 0
 114 273 157 257 201 232 c 0
 252 203 302 181 302 107 c 0
 302 21 232 -11 190 -11 c 0xd8
EndSplineSet
Validated: 1
EndChar

StartChar: t
Encoding: 116 116 20
Width: 312
VWidth: 0
Flags: W
HStem: -9 41<171.651 253.721> 349 44<152.023 292>
VStem: 78 73<51.0586 344.749>
LayerCount: 3
Fore
SplineSet
151 138 m 2
 151 66 170 32 219 32 c 0
 249 32 268 37 280 39 c 0
 286 40 291 31 286 28 c 0
 262 12 208 -9 185 -9 c 0
 91 -9 78 46 78 138 c 2
 78 320 l 2
 78 344 68 345 57 345 c 2
 52 345 l 2
 42 345 30 349 30 361 c 0
 30 372 57 384 125 460 c 0
 131 466 136 469 141 469 c 0
 147 469 152 463 152 449 c 2
 152 402 l 2
 152 394 152 393 179 393 c 2
 270 393 l 2
 290 393 292 388 292 373 c 2
 292 368 l 2
 292 351 290 347 253 347 c 0
 236 347 211 349 174 349 c 0
 154 349 151 349 151 327 c 2
 151 138 l 2
EndSplineSet
Validated: 1
EndChar

StartChar: u
Encoding: 117 117 21
Width: 492
VWidth: 0
Flags: W
HStem: -15 40<195.651 290.822> 10 23<418.208 464.18> 369 24<254.047 332.445>
VStem: 90 73<60.5931 362.793> 339 73<36.1805 36.6112 49.0271 365.206>
LayerCount: 3
Fore
SplineSet
334 39 m 0x78
 319 23 277 -15 222 -15 c 0
 103 -15 90 76 90 177 c 2
 90 331 l 2
 90 360 82 360 53 366 c 0
 34 370 27 368 27 379 c 0
 27 384 28 392 32 392 c 0
 142 392 132 393 156 393 c 0
 160 393 166 387 166 377 c 0
 166 325 163 255 163 195 c 0
 163 137 163 97 179 67 c 0
 194 39 216 25 251 25 c 0xb8
 294 25 339 58 339 83 c 2
 339 324 l 2
 339 342 336 348 334 354 c 0
 330 365 320 366 283 369 c 0
 250 371 249 369 249 380 c 2
 249 383 l 2
 249 391 252 393 257 393 c 2
 402 393 l 2
 407 393 412 391 412 375 c 2
 412 90 l 2
 412 30 418 39 459 33 c 0
 467 32 469 30 469 23 c 2
 469 17 l 2
 469 13 469 11 461 10 c 0
 447 7 412 5 350 -13 c 0
 346 -14 341 -11 341 -7 c 2
 340 37 l 2
 340 41 341 46 334 39 c 0x78
EndSplineSet
Validated: 1
EndChar

StartChar: v
Encoding: 118 118 22
Width: 452
VWidth: 0
Flags: W
HStem: -8 21G<206 218> 370 24<13.2608 53.713 148.488 202.993 264.146 325.935 382.828 435.773>
DStem2: 259 141 275 113 0.391057 0.920366<-48.2486 210.479>
LayerCount: 3
Fore
SplineSet
331 340 m 0
 331 370 309 368 272 373 c 0
 267 374 264 378 264 384 c 0
 264 389 266 393 270 393 c 0
 284 393 336 391 354 391 c 0
 389 391 413 394 427 394 c 0
 434 394 436 390 436 388 c 2
 436 386 l 2
 436 370 430 374 409 371 c 0
 377 366 375 353 332 249 c 2
 275 113 l 1
 233 16 l 2
 226 -1 222 -8 214 -8 c 2
 210 -8 l 2
 202 -8 199 -2 195 8 c 2
 92 276 l 2
 67 341 59 366 32 370 c 0
 17 373 13 375 13 386 c 0
 13 391 16 394 21 394 c 0
 28 394 64 391 108 391 c 0
 128 391 186 394 196 394 c 0
 200 394 203 391 203 386 c 0
 203 381 204 376 195 375 c 0
 153 371 148 363 148 354 c 2
 148 352 l 2
 148 322 202 182 229 119 c 0
 235 105 237 97 239 97 c 0
 242 97 248 116 259 141 c 0
 278 183 288 204 304 247 c 0
 320 291 331 321 331 340 c 0
EndSplineSet
Validated: 1
EndChar

StartChar: w
Encoding: 119 119 23
Width: 712
VWidth: 0
Flags: W
HStem: -8 98<229.5 261 448 486> 370 24<15.1752 59.7692 154.005 207.946 269.106 319.199 399.082 457.874 535.02 587.871 639.142 687.924>
VStem: 351 48<281.33 334.188>
DStem2: 175 300 92 297 0.391495 -0.92018<-64.876 226.474> 271 106 269 39 0.447214 0.894427<-19.1843 153.347> 503 131 567 210 0.402401 0.915463<-40.1413 232.819>
LayerCount: 3
Fore
SplineSet
555 370 m 2
 550 370 l 2
 535 370 535 378 535 384 c 0
 535 389 538 394 542 394 c 0
 567 394 593 392 618 392 c 0
 638 392 658 394 678 394 c 0
 688 394 688 387 688 386 c 2
 688 384 l 2
 688 374 684 371 670 370 c 0
 627 367 627 346 567 210 c 2
 487 28 l 2
 473 -4 468 -8 457 -8 c 0
 439 -8 437 0 429 26 c 2
 371 213 l 2
 368 223 365 231 364 231 c 0
 362 231 358 224 355 218 c 0
 291 84 293 94 269 39 c 0
 251 -3 252 -8 237 -8 c 0
 222 -8 221 -4 209 22 c 2
 92 297 l 2
 66 359 58 368 33 371 c 0
 18 373 15 371 15 387 c 0
 15 392 18 395 23 395 c 0
 30 395 86 392 104 392 c 0
 130 392 188 395 201 395 c 0
 205 395 208 390 208 385 c 0
 208 380 208 371 200 371 c 2
 184 371 l 2
 161 371 154 370 154 362 c 0
 154 353 162 335 175 300 c 2
 251 106 l 2
 255 96 258 90 260 90 c 0
 262 90 266 95 271 106 c 2
 341 246 l 2
 348 260 351 264 351 268 c 0
 351 271 350 274 347 283 c 2
 325 346 l 2
 316 373 299 369 290 370 c 0
 272 372 269 370 269 386 c 0
 269 391 272 394 277 394 c 0
 289 394 332 392 358 392 c 0
 386 392 423 394 450 394 c 0
 456 394 458 389 458 384 c 0
 458 370 447 369 435 369 c 2
 421 369 l 2
 406 369 399 368 399 356 c 0
 399 343 457 173 472 128 c 0
 476 115 481 95 485 95 c 0
 487 95 499 122 503 131 c 2
 535 202 l 2
 560 257 592 331 592 347 c 0
 592 361 575 370 555 370 c 2
EndSplineSet
Validated: 1
EndChar

StartChar: x
Encoding: 120 120 24
Width: 456
VWidth: 0
Flags: W
HStem: -2 24<21.0142 69.1136 126.389 171.952 240.025 279.987 374.052 431.965> 368 26<26.0176 85.8537 259.151 304.747 358.692 419.943>
VStem: 194 61<180.25 223.382>
DStem2: 216 274 105 330 0.541764 -0.840531<-84.9955 45.712 87.336 235.819> 126 100 144 80 0.589469 0.807791<-49.0763 100.786> 250 250 278 250 0.569899 0.821715<-17.9683 111.615>
LayerCount: 3
Fore
SplineSet
217 383 m 0
 217 362 179 382 179 352 c 0
 179 337 199 302 216 274 c 2
 230 250 l 2
 236 240 238 235 240 235 c 0
 242 235 244 240 250 250 c 2
 271 283 l 2
 279 297 305 329 305 351 c 0
 305 372 291 372 269 373 c 0
 264 373 259 375 259 383 c 0
 259 394 265 394 268 394 c 0
 280 394 329 392 340 392 c 0
 369 392 400 394 410 394 c 0
 415 394 420 393 420 385 c 2
 420 383 l 2
 420 373 418 375 392 371 c 0
 365 367 342 342 321 312 c 2
 278 250 l 2
 262 226 255 220 255 214 c 0
 255 210 259 207 265 197 c 2
 352 63 l 2
 369 36 381 23 402 21 c 0
 420 20 432 20 432 11 c 0
 432 -2 425 -2 421 -2 c 0
 405 -2 357 0 330 0 c 0
 312 0 259 -2 253 -2 c 0
 238 -2 240 5 240 10 c 0
 240 17 242 19 250 20 c 0
 262 22 280 20 280 34 c 0
 280 48 253 93 233 126 c 2
 216 154 l 2
 211 162 210 165 208 165 c 0
 206 165 204 162 198 154 c 2
 144 80 l 2
 131 61 126 50 126 38 c 0
 126 25 134 22 157 22 c 0
 168 22 172 17 172 11 c 0
 172 5 168 -2 162 -2 c 0
 146 -2 100 0 84 0 c 0
 64 0 34 -2 29 -2 c 0
 24 -2 21 4 21 9 c 0
 21 16 22 22 34 22 c 0
 63 23 65 22 126 100 c 0
 142 120 156 139 172 158 c 0
 188 177 194 180 194 185 c 0
 194 189 191 193 183 206 c 2
 105 330 l 2
 83 365 75 366 46 368 c 0
 32 369 26 369 26 382 c 0
 26 388 27 394 34 394 c 0
 47 394 112 392 126 392 c 0
 154 392 178 394 205 394 c 0
 212 394 217 392 217 383 c 0
EndSplineSet
Validated: 1
EndChar

StartChar: y
Encoding: 121 121 25
Width: 498
VWidth: 0
Flags: W
HStem: -286 77<30.2429 104.938> 369 26<7.11421 56.8391 146.971 206.863 294.109 357.702 428.124 479.797>
LayerCount: 3
Fore
SplineSet
49 -191 m 0
 72 -191 80 -209 88 -209 c 0
 94 -209 103 -196 130 -146 c 0
 178 -56 193 -18 193 -1 c 0
 193 6 189 13 178 41 c 2
 89 276 l 2
 53 372 60 366 21 368 c 0
 10 369 7 371 7 386 c 0
 7 391 12 394 17 394 c 0
 31 394 89 392 101 392 c 0
 121 392 170 395 200 395 c 0
 204 395 207 390 207 385 c 0
 207 380 206 369 198 369 c 2
 190 369 l 2
 159 369 146 368 146 348 c 0
 146 332 180 238 232 98 c 0
 238 81 240 75 243 75 c 0
 246 75 250 83 257 98 c 0
 312 210 361 315 361 343 c 0
 361 362 351 367 306 369 c 0
 295 369 294 374 294 378 c 0
 294 392 297 395 304 395 c 0
 314 395 367 392 392 392 c 0
 426 392 455 394 469 394 c 0
 480 394 482 389 482 386 c 2
 482 379 l 2
 482 372 477 367 471 367 c 0
 425 364 418 359 377 276 c 2
 141 -204 l 2
 115 -256 98 -286 59 -286 c 0
 20 -286 2 -262 2 -238 c 0
 2 -215 18 -191 49 -191 c 0
EndSplineSet
Validated: 1
EndChar

StartChar: z
Encoding: 122 122 26
Width: 403
VWidth: 0
Flags: W
HStem: -7 21G<328.5 339.5> 0 29<116.008 290.367> 365 28<90.1613 239.999>
VStem: 12 104<7.5 51.5031>
LayerCount: 3
Fore
SplineSet
116 40 m 0x70
 116 30 127 29 155 29 c 2
 204 29 l 2
 233 29 278 34 291 38 c 0
 306 43 325 72 357 114 c 0
 360 119 365 120 369 120 c 0
 377 120 384 114 384 106 c 0
 384 96 367 41 351 0 c 0x70
 349 -5 343 -7 336 -7 c 1xb0
 321 -4 300 0 286 0 c 2
 29 0 l 2
 23 0 12 2 12 13 c 0
 12 18 15 24 20 32 c 0
 69 103 240 350 240 359 c 0
 240 365 239 365 208 365 c 2
 173 365 l 2
 150 365 120 364 108 360 c 0
 62 345 43 286 25 286 c 0
 14 286 11 293 11 299 c 0
 11 306 20 330 34 376 c 0
 39 392 38 409 50 409 c 0
 62 409 73 395 91 393 c 0
 95 393 99 393 103 393 c 0
 168 393 284 394 335 394 c 0
 340 394 350 390 350 384 c 0
 350 371 336 360 315 329 c 0
 234 210 116 46 116 40 c 0x70
EndSplineSet
Validated: 1
EndChar

StartChar: A
Encoding: 65 65 27
Width: 725
VWidth: 0
Flags: W
HStem: -5 31<26.0266 97.3269 147.287 261.886 414.004 503.627 612.1 690.991> 240 36<222 419>
DStem2: 116 79 208 240 0.348419 0.937339<-10.4014 182.966 221.588 507.288> 373 644 321 544 0.364338 -0.931267<74.1811 359.466 397.728 604.362>
LayerCount: 3
Fore
SplineSet
321 544 m 1
 222 276 l 1
 419 276 l 1
 321 544 l 1
596 74 m 2
 611 35 616 27 663 27 c 2
 668 27 l 2
 688 27 691 26 691 12 c 0
 691 2 691 -5 672 -5 c 0
 651 -5 606 1 554 1 c 0
 516 1 434 -5 429 -5 c 0
 420 -5 414 -2 414 10 c 0
 414 23 417 26 428 27 c 0
 491 30 504 25 504 46 c 0
 504 52 504 60 432 240 c 1
 208 240 l 1
 163 120 147 85 146 52 c 0
 146 26 158 26 226 26 c 2
 234 26 l 2
 250 26 262 23 262 13 c 0
 262 -5 252 -5 246 -5 c 0
 229 -5 146 1 122 1 c 0
 115 1 55 -5 40 -5 c 0
 30 -5 26 -4 26 12 c 0
 26 22 31 25 44 26 c 0
 87 28 92 20 116 79 c 0
 194 275 285 528 321 622 c 0
 331 648 329 650 345 650 c 2
 355 650 l 2
 361 650 371 649 373 644 c 2
 596 74 l 2
EndSplineSet
Validated: 1
EndChar

StartChar: B
Encoding: 66 66 28
Width: 558
VWidth: 0
Flags: W
HStem: 0 31<32.0045 107.327 216.698 365.875> 333 26<212 316.701> 624 31<36.0374 109.352> 631 29<215.305 339.47>
VStem: 112 100<32.325 333 359 622.822> 408 96<434.629 574.589> 435 103<94.6035 250.893>
LayerCount: 3
Fore
SplineSet
138 653 m 0xea
 194 653 200 660 313 660 c 0
 365 660 504 641 504 506 c 0xdc
 504 379 342 350 342 350 c 1
 342 350 538 336 538 166 c 0
 538 19 390 0 278 0 c 0
 223 0 162 1 160 1 c 0
 97 1 63 -5 46 -5 c 0
 37 -5 33 -3 33 2 c 0
 32 10 32 13 32 16 c 0
 32 26 38 24 78 26 c 0
 96 27 112 29 112 85 c 2
 112 575 l 2
 112 622 109 624 64 624 c 2
 54 624 l 2
 39 624 36 628 36 637 c 0
 36 642 36 655 47 655 c 0
 78 654 120 653 138 653 c 0xea
408 502 m 0
 408 574 353 631 281 631 c 2
 259 631 l 2
 218 631 212 631 212 581 c 2
 212 359 l 1
 249 359 l 2
 322 359 408 400 408 502 c 0
435 182 m 0xca
 435 288 351 333 279 333 c 2
 212 333 l 1
 212 85 l 2
 212 40 220 31 247 31 c 2
 301 31 l 2
 394 31 435 102 435 182 c 0xca
EndSplineSet
Validated: 1
EndChar

StartChar: C
Encoding: 67 67 29
Width: 710
VWidth: 0
Flags: W
HStem: -18 32<299.63 465.365> 640 27<301.475 451.57>
VStem: 20 107<203.731 437.115> 599 18<477.035 506.403>
LayerCount: 3
Fore
SplineSet
127 320 m 0
 127 118 252 14 384 14 c 0
 545 14 600 169 606 171 c 0
 611 173 617 170 617 167 c 2
 617 167 612 98 607 59 c 0
 603 28 602 32 581 28 c 0
 568 26 552 23 544 19 c 0
 480 -8 424 -18 372 -18 c 0
 139 -18 20 155 20 322 c 0
 20 485 141 667 375 667 c 0
 482 667 572 614 574 614 c 0
 576 614 577 616 579 619 c 2
 585 629 l 2
 588 633 592 636 597 636 c 0
 604 636 608 636 609 616 c 0
 614 539 617 499 617 486 c 0
 617 480 617 477 609 477 c 0
 600 477 600 482 599 485 c 0
 575 563 480 640 378 640 c 0
 215 640 127 479 127 320 c 0
EndSplineSet
Validated: 1
EndChar

StartChar: D
Encoding: 68 68 30
Width: 730
VWidth: 0
Flags: W
HStem: -2 33<47.7487 108.539 216.623 397.724> 618 33<36.2541 107.9 183.31 405.675>
VStem: 112 100<34.0465 614.081> 575 114<203.425 449.82>
LayerCount: 3
Fore
SplineSet
150 644 m 0
 184 644 245 651 313 651 c 0
 443 651 689 614 689 338 c 0
 689 8 390 -2 278 -2 c 0
 223 -2 162 1 160 1 c 0
 109 1 69 -4 61 -4 c 0
 50 -4 46 -3 47 16 c 0
 48 26 51 25 91 28 c 0
 98 29 112 29 112 85 c 2
 112 562 l 2
 112 609 109 616 64 616 c 2
 54 616 l 2
 39 616 36 620 36 629 c 0
 36 634 36 648 47 648 c 0
 60 648 72 644 150 644 c 0
212 571 m 2
 212 85 l 2
 212 32 220 31 280 31 c 2
 290 31 l 2
 534 31 575 219 575 317 c 0
 575 446 529 520 468 569 c 0
 415 612 354 618 286 618 c 0
 212 618 212 611 212 571 c 2
EndSplineSet
Validated: 1
EndChar

StartChar: H
Encoding: 72 72 34
Width: 812
VWidth: 0
Flags: W
HStem: -5 31<38.0019 116.478 232.093 336.974 498.002 589.478 703.778 769.993> 312 31<223 596> 621 31<46.003 114.209 233.145 333.953 504.005 587.209 707.944 773.966>
VStem: 123 100<30.9547 312 343 616.147> 596 100<28.9603 312 343 615.995>
LayerCount: 3
Fore
SplineSet
223 127 m 2
 223 34 224 29 281 26 c 2
 320 24 l 2
 335 23 337 18 337 9 c 0
 337 2 335 -5 327 -5 c 0
 293 -5 222 1 178 1 c 0
 118 1 73 -5 50 -5 c 0
 37 -5 38 3 38 8 c 2
 38 12 l 2
 38 29 68 22 98 28 c 0
 120 32 123 42 123 129 c 2
 123 520 l 2
 123 600 123 616 81 621 c 0
 70 622 62 623 57 623 c 0
 45 624 46 626 46 637 c 0
 46 648 47 652 60 652 c 0
 71 652 136 647 171 647 c 0
 241 647 301 652 324 652 c 0
 333 652 334 641 334 635 c 0
 334 622 327 621 308 621 c 2
 266 621 l 2
 229 621 223 603 223 512 c 2
 223 343 l 1
 596 343 l 1
 596 520 l 2
 596 600 596 616 554 621 c 0
 544 622 515 622 509 624 c 0
 502 626 504 630 504 633 c 2
 504 639 l 2
 504 650 506 652 539 652 c 0
 550 652 609 647 644 647 c 0
 714 647 741 652 764 652 c 0
 773 652 774 641 774 635 c 0
 774 622 769 621 750 621 c 0
 712 620 696 623 696 512 c 2
 696 127 l 2
 696 48 699 31 727 26 c 0
 768 19 770 27 770 9 c 0
 770 2 770 -5 762 -5 c 0
 713 -5 683 1 649 1 c 0
 601 1 540 -5 510 -5 c 0
 497 -5 498 3 498 8 c 2
 498 12 l 2
 498 29 536 21 571 28 c 0
 593 32 596 42 596 129 c 2
 596 312 l 1
 223 312 l 1
 223 127 l 2
EndSplineSet
Validated: 1
EndChar

StartChar: I
Encoding: 73 73 35
Width: 332
VWidth: 0
Flags: W
HStem: -5 31<39.0019 100.305 214.32 284.961> 621 31<29.3262 94.4169 216.619 278.953>
VStem: 106 100<28.7165 614.048>
LayerCount: 3
Fore
SplineSet
106 129 m 2
 106 523 l 2
 106 606 101 615 57 621 c 0
 29.1860717542 624.792808397 29 622 29 633 c 2
 29 639 l 2
 29 650 36 652 49 652 c 0
 60 652 119 647 154 647 c 0
 224 647 246 652 269 652 c 0
 278 652 279 641 279 635 c 0
 279 622 272 621 253 621 c 2
 247 621 l 2
 214 621 206 603 206 512 c 2
 206 127 l 2
 206 52 209 31 237 26 c 0
 273 20 285 28 285 9 c 0
 285 2 283 -5 275 -5 c 0
 268 -5 216 1 159 1 c 0
 111 1 77 -5 51 -5 c 0
 38 -5 39 3 39 8 c 2
 39 12 l 2
 39 28 55 21 81 26 c 0
 103 30 106 42 106 129 c 2
EndSplineSet
Validated: 1
EndChar

StartChar: J
Encoding: 74 74 36
Width: 304
VWidth: 0
Flags: W
HStem: -210 76<-37 88> 621 31<29.0089 102.988 212.885 274.988>
VStem: 108 100<-39.0509 617.663>
LayerCount: 3
Fore
SplineSet
44 621 m 2
 30 621 29 631 29 637 c 0
 29 645 32 652 41 652 c 0
 70 652 110 647 154 647 c 16
 198 647 232 652 265 652 c 0
 271 652 275 646 275 637 c 0
 275 621 258 622 248 621 c 0
 224 618 208 621 208 575 c 2
 208 78 l 2
 208 -49 149 -121 79 -169 c 0
 40 -196 3 -210 -16 -210 c 0
 -58 -210 -84 -174 -84 -142 c 0
 -84 -112 -67 -85 -29 -85 c 0
 15 -85 37 -134 72 -134 c 0
 104 -134 108 -29 108 55 c 2
 108 563 l 2
 108 609 107 621 52 621 c 2
 44 621 l 2
EndSplineSet
Validated: 1
EndChar

StartChar: N
Encoding: 78 78 39
Width: 810
VWidth: 0
Flags: W
HStem: -5 31<56.0021 134.625 198.937 287.988> 623 32<38.0466 116.045 538.007 631.317 700.824 778.894>
VStem: 152 33<42.9592 347.298> 651 36<451.403 604.552> 652 27<256.597 524.104>
LayerCount: 3
Fore
SplineSet
667 0 m 2xe8
 662 0 l 2
 661 0 656 0 654 2 c 0
 649 7 637 19 616 43 c 0
 437 245 196 516 193 516 c 0
 191 516 185 283 185 153 c 0
 185 124 186 101 186 86 c 0
 188 18 224 31 265 26 c 0
 280 24 288 25 288 11 c 0
 288 3 284 -5 273 -5 c 0
 257 -5 199 2 170 2 c 0
 138 2 90 -5 76 -5 c 0
 56 -5 56 4 56 10 c 0
 56 22 57 26 73 26 c 0
 136 26 148 39 152 110 c 0
 158 235 159 361 159 444 c 2
 159 542 l 2
 159 555 158 559 147 572 c 0
 121 604 113 624 51 625 c 0
 40 625 38 626 38 642 c 0
 38 650 42 656 49 656 c 0
 100 654 149 650 216 650 c 0
 223 650 234 637 276 589 c 0
 541 282 646 163 649 163 c 0
 651 163 652 204 652 450 c 0xe8
 652 480 652 506 651 525 c 0
 649 567 650 623 589 623 c 0
 576 623 567 622 555 622 c 0
 548 622 538 623 538 639 c 0
 538 652 542 655 561 655 c 0
 571 655 610 650 670 650 c 0
 695 650 754 655 766 655 c 0
 775 655 779 650 779 641 c 0
 779 626 766 626 754 625 c 0
 706 622 692 608 687 573 c 0xf0
 681 529 679 467 679 417 c 2
 679 364 l 2
 679 206 675 153 675 100 c 0
 675 72 673 41 673 26 c 0
 673 0 668 0 667 0 c 2xe8
EndSplineSet
Validated: 1
EndChar

StartChar: O
Encoding: 79 79 40
Width: 746
VWidth: 0
Flags: W
HStem: -17 33<310.968 470.399> 638 32<297.944 463.138>
VStem: 42 111<206.94 459.773> 613 98<194.92 465.522>
LayerCount: 3
Fore
SplineSet
378 638 m 0
 221 638 153 488 153 336 c 0
 153 178 229 16 390 16 c 0
 480 16 613 67 613 332 c 0
 613 515 530 638 378 638 c 0
375 670 m 0
 553 670 711 567 711 331 c 0
 711 96 549 -17 385 -17 c 0
 215 -17 42 104 42 336 c 0
 42 504 153 670 375 670 c 0
EndSplineSet
Validated: 1
EndChar

StartChar: P
Encoding: 80 80 41
Width: 555
VWidth: 0
Flags: W
HStem: -5 31<20.0222 105.51 216.79 328.917> 274 40<228.092 349.805> 631 29<25.3886 104.49 217.37 343.498>
VStem: 112 99<28.1877 300 316.034 623.503> 434 92<390.641 556.489>
LayerCount: 3
Fore
SplineSet
434 481 m 0
 434 571 355 631 283 631 c 2
 259 631 l 2
 230 631 211 631 211 581 c 2
 211 319 l 1
 211 319 240 314 263 314 c 0
 363 314 434 372 434 481 c 0
78 26 m 0
 96 28 112 29 112 85 c 2
 112 577 l 2
 112 624 106 626 53 626 c 2
 43 626 l 2
 28 626 25 630 25 639 c 0
 25 644 25 657 36 657 c 0
 114 657 135 655 162 655 c 0
 195 656 222 660 313 660 c 0
 365 660 526 631 526 469 c 0
 526 356 442 274 334 274 c 0
 272 274 212 300 212 300 c 1
 212 85 l 2
 212 40 216 26 249 26 c 2
 303 26 l 2
 322 26 329 25 329 15 c 2
 329 8 l 2
 329 -4 328 -5 307 -5 c 0
 294 -5 181 1 160 1 c 0
 129 1 54 -5 45 -5 c 0
 20 -5 20 -4 20 8 c 0
 20 17 20 21 37 23 c 0
 47 24 60 24 78 26 c 0
EndSplineSet
Validated: 1
EndChar

StartChar: T
Encoding: 84 84 45
Width: 730
VWidth: 0
Flags: W
HStem: -5 31<217.003 306.39 429.166 523.985> 613 34<101.535 313.386 421.352 642.61>
VStem: 318 100<31.5945 611.648>
LayerCount: 3
Fore
SplineSet
633 647 m 2
 641 647 668 663 672 663 c 0
 677 663 679 658 682 646 c 2
 692 608 l 2
 699 584 713 540 713 537 c 0
 713 534 706 531 702 531 c 0
 698 531 671 566 643 596 c 0
 629 611 619 613 598 613 c 2
 455 613 l 2
 436 613 420 609 420 586 c 0
 419 503 418 240 418 160 c 2
 418 128 l 2
 418 37 428 28 466 26 c 2
 504 24 l 2
 523 23 524 24 524 9 c 0
 524 -2 519 -5 513 -5 c 0
 476 -5 421 1 369 1 c 0
 318 1 286 -5 229 -5 c 0
 217 -5 217 3 217 11 c 0
 217 23 221 24 229 24 c 0
 259 25 239 24 280 26 c 0
 313 27 312 57 314 90 c 0
 316 116 318 248 318 354 c 2
 318 516 l 2
 318 610 316 613 280 613 c 2
 182 613 l 2
 115 613 118 611 93 589 c 0
 50 551 36 539 33 539 c 0
 31 539 21 541 21 548 c 0
 21 551 54 635 61 659 c 0
 62 664 66 666 69 666 c 0
 76 666 95 647 108 647 c 6
 633 647 l 2
EndSplineSet
Validated: 1
EndChar

StartChar: period
Encoding: 46 46 53
Width: 320
VWidth: 0
Flags: W
HStem: -14 106<112.315 197.685>
VStem: 102 106<-3.68506 81.6851>
LayerCount: 3
Fore
SplineSet
102 39 m 0
 102 69 125 92 155 92 c 0
 185 92 208 69 208 39 c 0
 208 9 185 -14 155 -14 c 0
 125 -14 102 9 102 39 c 0
EndSplineSet
Validated: 1
EndChar

StartChar: comma
Encoding: 44 44 54
Width: 306
VWidth: 0
Flags: W
HStem: -1 99<91.7653 164.309>
VStem: 166 55<-83.2435 38>
LayerCount: 3
Fore
SplineSet
125 -164 m 0
 117 -164 106 -155 106 -145 c 0
 106 -138 115 -134 131 -118 c 0
 156 -92 166 -48 166 -31 c 0
 166 -6 157 -1 147 -1 c 0
 140 -1 134 -3 127 -3 c 0
 99 -3 78 8 78 41 c 0
 78 77 110 98 143 98 c 0
 181 98 221 71 221 5 c 0
 221 -63 183 -118 155 -145 c 0
 143 -157 134 -164 125 -164 c 0
EndSplineSet
Validated: 1
Layer: 2
SplineSet
125 -164 m 4
 117 -164 106 -155 106 -145 c 4
 106 -138 115 -134 131 -118 c 4
 156 -92 166 -48 166 -31 c 4
 166 -8 158 3 158 3 c 5
 158 3 145 -3 127 -3 c 4
 99 -3 78 8 78 41 c 4
 78 77 110 98 143 98 c 4
 181 98 221 71 221 5 c 4
 221 -63 183 -118 155 -145 c 4
 143 -157 134 -164 125 -164 c 4
EndSplineSet
EndChar

StartChar: hyphen
Encoding: 45 45 55
Width: 316
VWidth: 0
Flags: W
HStem: 172 58<23.0007 289>
VStem: 23 266<172 230>
LayerCount: 3
Fore
SplineSet
26 230 m 2
 286 230 l 2
 289 230 289 222 289 213 c 2
 289 185 l 2
 289 177 289 172 286 172 c 2
 26 172 l 2
 23 172 23 182 23 196 c 2
 23 215 l 2
 23 224 23 230 26 230 c 2
EndSplineSet
Validated: 1
EndChar

StartChar: colon
Encoding: 58 58 56
Width: 320
VWidth: 0
Flags: W
HStem: -9 94<125.394 204.606> 261 94<125.394 204.606>
VStem: 118 94<-1.60614 77.6061 268.394 347.606>
LayerCount: 3
Fore
SplineSet
118 308 m 0
 118 334 139 355 165 355 c 0
 191 355 212 334 212 308 c 0
 212 282 191 261 165 261 c 0
 139 261 118 282 118 308 c 0
118 38 m 0
 118 64 139 85 165 85 c 0
 191 85 212 64 212 38 c 0
 212 12 191 -9 165 -9 c 0
 139 -9 118 12 118 38 c 0
EndSplineSet
Validated: 1
EndChar

StartChar: semicolon
Encoding: 59 59 57
Width: 328
VWidth: 0
Flags: W
HStem: 8 93<121.195 195.838> 261 94<124.394 203.606>
VStem: 117 94<268.394 347.606> 197 52<-74.7171 38.5>
LayerCount: 3
Fore
SplineSet
191 -120 m 0xd0
 161 -153 141 -155 138 -155 c 0
 131 -155 127 -150 125 -143 c 0
 123 -136 127 -132 135 -125 c 0
 170 -94 197 -51 197 -23 c 0
 197 -4 186 8 158 8 c 0
 124 8 108 27 108 48 c 0
 108 73 132 101 173 101 c 0
 211 101 249 70 249 7 c 0
 249 -62 214 -95 191 -120 c 0xd0
117 308 m 0xe0
 117 334 138 355 164 355 c 0
 190 355 211 334 211 308 c 0
 211 282 190 261 164 261 c 0
 138 261 117 282 117 308 c 0xe0
EndSplineSet
Validated: 1
EndChar

StartChar: exclam
Encoding: 33 33 58
Width: 324
VWidth: 0
Flags: W
HStem: -11 88<124.44 199.56>
VStem: 118 88<-4.56006 70.5601 370.443 626> 146 23<208.295 314.302>
LayerCount: 3
Fore
SplineSet
139 626 m 2xa0
 191 626 l 2
 206 626 212 617 212 608 c 0
 212 599 209 607 169 214 c 0
 168 206 147 205 146 215 c 0
 130 530 131 483 119 608 c 0
 118 616 126 626 139 626 c 2xa0
118 33 m 0xc0
 118 57 138 77 162 77 c 0
 186 77 206 57 206 33 c 0
 206 9 186 -11 162 -11 c 0
 138 -11 118 9 118 33 c 0xc0
EndSplineSet
Validated: 1
EndChar

StartChar: question
Encoding: 63 63 59
Width: 352
VWidth: 0
Flags: W
HStem: -12 82<82.0781 153.922> 516 71<108.986 233.683>
VStem: 77 82<-6.92188 64.9219> 104 34<150.475 238.306> 277 25<331.057 460.865>
LayerCount: 3
Fore
SplineSet
104 516 m 2xd8
 92 516 84 532 84 578 c 0
 84 611 89 618 97 618 c 0
 104 618 104 614 120 595 c 0
 126 587 128 587 140 587 c 0
 223 587 247 557 258 541 c 0
 286 501 302 472 302 380 c 0
 302 297 280 257 239 251 c 0
 148 238 140 241 138 221 c 0
 136 193 132 156 128 150 c 0
 124 144 116 144 113 150 c 0
 108 159 104 241 104 292 c 0
 104 303 106 310 122 310 c 2
 210 310 l 2
 276 310 277 346 277 416 c 0
 277 465 236 516 155 516 c 2
 104 516 l 2xd8
77 29 m 0xe8
 77 51 96 70 118 70 c 0
 140 70 159 51 159 29 c 0
 159 7 140 -12 118 -12 c 0
 96 -12 77 7 77 29 c 0xe8
EndSplineSet
Validated: 1
EndChar

StartChar: parenleft
Encoding: 40 40 60
Width: 408
VWidth: 0
Flags: W
HStem: 659 20G<287.5 291>
VStem: 37 82<91.014 347.445>
LayerCount: 3
Fore
SplineSet
305 -210 m 0
 305 -212 291 -226 279 -226 c 0
 275 -226 267 -221 253 -206 c 0
 63 0 37 131 37 215 c 0
 37 426 211 607 274 670 c 0
 280 676 286 679 289 679 c 0
 293 679 310 667 310 659 c 0
 310 652 300 646 277 620 c 0
 179 509 119 365 119 216 c 0
 119 96 169 -60 283 -184 c 0
 297 -199 305 -205 305 -210 c 0
EndSplineSet
Validated: 1
EndChar

StartChar: parenright
Encoding: 41 41 61
Width: 408
VWidth: 0
Flags: W
HStem: 658 20G<58.5 61.5>
VStem: 229 78<89.9467 353.291>
LayerCount: 3
Fore
SplineSet
42 -210 m 0
 42 -205 50 -199 64 -184 c 0
 178 -60 229 72 229 216 c 0
 229 377 168 509 70 620 c 0
 47 646 42 650 42 657 c 0
 42 665 57 678 60 678 c 0
 63 678 69 676 75 670 c 0
 138 607 307 442 307 215 c 0
 307 146 296 23 92 -206 c 0
 78.3517913245 -221.320783268 72 -224 69 -224 c 0
 60 -224 42 -212 42 -210 c 0
EndSplineSet
Validated: 1
EndChar

StartChar: bracketleft
Encoding: 91 91 62
Width: 355
VWidth: 0
Flags: W
HStem: -230 39<137.579 260.729> -222 27<114.06 227.335> 620 38<122.859 273.994>
VStem: 44 70<-194.999 25.1812> 55 68<66.5605 626.003>
LayerCount: 3
Fore
SplineSet
55 299 m 0x68
 55 609 51 609 51 643 c 0
 51 653 69 656 98 656 c 0
 144 656 213 657 264 658 c 0
 272 658 274 649 274 641 c 2
 274 633 l 2
 274 621 263 620 255 620 c 0
 220 622 169 626 143 626 c 0
 128 626 123 630 123 614 c 2x68
 114 -179 l 2
 114 -194 119 -195 135 -195 c 0x70
 190 -195 246 -191 248 -191 c 0
 255 -191 261 -193 261 -218 c 0
 261 -223 256 -230 229 -230 c 0xb0
 194 -230 125 -222 78 -222 c 0
 47 -222 44 -217 44 -206 c 0x70
 44 -191 55 8 55 299 c 0x68
EndSplineSet
Validated: 1
EndChar

StartChar: bracketright
Encoding: 93 93 63
Width: 355
VWidth: 0
Flags: W
HStem: -228 37<44.0354 193> 620 41<47.0586 175.467> 625 29<64.3813 194.996>
VStem: 193 66<-194.998 625.001> 195 70<1.37086 625.001>
LayerCount: 3
Fore
SplineSet
258 -17 m 0xa8
 258 -129 259 -197 259 -206 c 0
 259 -217 258 -224 231 -224 c 0
 219 -224 97 -228 62 -228 c 0
 48 -228 44 -220 44 -208 c 0
 44 -194 47 -191 54 -191 c 0
 78 -192 139 -195 175 -195 c 0
 188 -195 193 -193 193 -179 c 2xb0
 195 614 l 2
 195 627 189 625 179 625 c 0xa8
 103 625 67 620 62 620 c 0
 52 620 47 633 47 642 c 0
 47 652 52 661 62 661 c 0xc8
 113 660 151 654 240 654 c 0
 265 654 265 650 265 641 c 0
 265 575 258 378 258 -17 c 0xa8
EndSplineSet
Validated: 1
EndChar

StartChar: quoteleft
Encoding: 8216 8216 64
Width: 278
VWidth: 0
Flags: W
HStem: 409 90<119.091 193.881> 659 20G<162.5 179>
VStem: 68 48<468.354 587.594>
LayerCount: 3
Fore
SplineSet
193 664 m 0
 193 657 186 651 169 635 c 0
 143 610 116 574 116 539 c 0
 116 512 125 502 146 499 c 0
 157 498 201 503 201 455 c 0
 201 433 185 409 146 409 c 0
 115 409 68 436 68 502 c 0
 68 594 149 679 176 679 c 0
 182 679 193 675 193 664 c 0
EndSplineSet
Validated: 1
EndChar

StartChar: quoteright
Encoding: 8217 8217 65
Width: 244
VWidth: 0
Flags: W
HStem: 579 98<80.8125 143.291>
VStem: 145 53<512.253 617>
LayerCount: 3
Fore
SplineSet
123 579 m 0
 103 579 69 581 69 622 c 0
 69 646 87 677 128 677 c 0
 165 677 198 641 198 593 c 0
 198 541 163 480 134 444 c 0
 119 426 109 414 100 414 c 0
 91 414 84 420 83 430 c 0
 82 437 88 442 98 454 c 0
 129 491 145 527 145 551 c 0
 145 567 143 579 123 579 c 0
EndSplineSet
Validated: 1
EndChar
